<?xml version="1.0" encoding="UTF-8" standalone="no"?>
<!-- Created with Inkscape (http://www.inkscape.org/) -->

<svg
   xmlns:dc="http://purl.org/dc/elements/1.1/"
   xmlns:cc="http://creativecommons.org/ns#"
   xmlns:rdf="http://www.w3.org/1999/02/22-rdf-syntax-ns#"
   xmlns:svg="http://www.w3.org/2000/svg"
   xmlns="http://www.w3.org/2000/svg"
   xmlns:sodipodi="http://sodipodi.sourceforge.net/DTD/sodipodi-0.dtd"
   xmlns:inkscape="http://www.inkscape.org/namespaces/inkscape"
   width="68.672mm"
   height="66.675mm"
   version="1.1"
   viewBox="0 0 68.672 66.675"
   id="svg28"
   sodipodi:docname="option_iris.svg"
   inkscape:version="0.92.4 (5da689c313, 2019-01-14)">
  <defs
     id="defs32" />
  <sodipodi:namedview
     pagecolor="#ffffff"
     bordercolor="#666666"
     borderopacity="1"
     objecttolerance="10"
     gridtolerance="10"
     guidetolerance="10"
     inkscape:pageopacity="0"
     inkscape:pageshadow="2"
     inkscape:window-width="1800"
     inkscape:window-height="1106"
     id="namedview30"
     showgrid="false"
     inkscape:zoom="1.8730158"
     inkscape:cx="97.831418"
     inkscape:cy="109.62032"
     inkscape:window-x="-11"
     inkscape:window-y="-11"
     inkscape:window-maximized="1"
     inkscape:current-layer="g26" />
  <metadata
     id="metadata2">
    <rdf:RDF>
      <cc:Work
         rdf:about="">
        <dc:format>image/svg+xml</dc:format>
        <dc:type
           rdf:resource="http://purl.org/dc/dcmitype/StillImage" />
        <dc:title />
      </cc:Work>
    </rdf:RDF>
  </metadata>
  <g
     stroke="#555"
     id="g26"
     style="stroke:#969696;stroke-opacity:1">
    <path
       d="m3.2 48.479c15.478-9.3573 30.957-18.715 46.435-28.071"
       fill="none"
       stroke-width=".91096"
       style="paint-order:markers fill stroke;stroke:#969696;stroke-opacity:1"
       id="path4" />
    <g
       transform="matrix(1.3983 0 0 1.4023 -182.68 -196.56)"
       fill="#b4b4b4"
       stroke-linejoin="round"
       stroke-width=".65055"
       id="g12"
       style="stroke:#969696;stroke-opacity:1">
      <path
         d="m132.93 174.74c4.8677 1.7351 9.4174 5.034 14.784 4.6981 5.4079 0.26423 10.821 0.4944 16.237 0.42475-4.7903-4.6126-10.132-8.635-15.125-13.035-2.7475-1.8516-6.0136 2.7888-8.9855 3.7459-2.3035 1.3886-4.6071 2.7772-6.9106 4.1658z"
         stroke-linecap="round"
         style="paint-order:markers fill stroke;stroke:#969696;stroke-opacity:1"
         id="path6" />
      <path
         d="m164.26 179.88c3.1166 2.9571 5.0178 1.405 8.987 0.51426 2.9726-0.71942 3.0626-5.2154 3.834-7.5052 0.0388-0.2774 1.5858-4.1312 1.9591-5.9649-3.8945-3.8861-8.419-8.2475-12.909-12.208-6.1552 3.7105-12.31 7.4209-18.466 11.131 5.5316 4.6773 11.063 9.3547 16.595 14.032z"
         style="paint-order:markers fill stroke;stroke:#969696;stroke-opacity:1"
         id="path8" />
      <path
         d="m132.93 174.74c-0.0708-3.8789 0.30057-7.128 0.7563-11.663 0.8783-7.3495 4.9754 1.426 7.3117 2.9486 2.1901 1.6115 3.0893 1.9761-0.22625 3.9876l-7.8417 4.7271z"
         stroke-linecap="round"
         style="paint-order:markers fill stroke;stroke:#969696;stroke-opacity:1"
         id="path10" />
    </g>
    <g
       transform="matrix(1.3983 0 0 1.4023 -182.68 -196.56)"
       fill="#e8e8e8"
       stroke-width=".65055"
       id="g20"
       style="stroke:#969696;stroke-opacity:1">
      <path
         d="m143.38 168.43c-4.3381-4.3202-8.8352-8.573-12.022-13.856 0.86281-1.997 2.4918-2.9764 7.253-3.6696 2.7331-0.58718 3.5868-1.1513 6.2032-0.69986 2.9873 5.1554 4.4686 7.7117 7.4559 12.867-2.9632 1.7863-5.9265 3.5726-8.8898 5.3589z"
         stroke-linejoin="round"
         style="paint-order:markers fill stroke;stroke:#969696;stroke-opacity:1"
         id="path14" />
      <path
         d="m152.27 163.08c-2.9873-5.1554-4.4686-7.7117-7.4559-12.867 2.5376-1.2458 3.0272-1.2876 7.3335-2.2542 6.9821-2.3618 5.5213-1.9229 7.1427-0.45684 2.4962 2.4797 5.1501 5.0335 6.8425 7.2214"
         stroke-linejoin="round"
         style="paint-order:normal;stroke:#969696;stroke-opacity:1"
         id="path16" />
      <path
         d="m157.44 174.08 8.5101-9.258-6.3538-6.1598-11.925 7.1884z"
         id="path18"
         style="stroke:#969696;stroke-opacity:1" />
    </g>
    <path
       d="m49.372 34.568"
       fill="none"
       stroke-width=".91096"
       id="path22"
       style="stroke:#969696;stroke-opacity:1" />
    <path
       d="m49.372 34.568 7.3756-7.5464-7.1139-6.6207-9.1461 5.5293 8.8845 8.6379"
       fill="#828282"
       stroke-width=".91096"
       id="path24"
       style="stroke:#969696;stroke-opacity:1;fill:#c3c3c3;fill-opacity:1" />
  </g>
</svg>
