<?xml version="1.0" encoding="UTF-8"?>
<!-- Created with Inkscape (http://www.inkscape.org/) -->
<svg width="29.123mm" height="50.762mm" version="1.1" viewBox="0 0 29.123 50.762" xmlns="http://www.w3.org/2000/svg" xmlns:cc="http://creativecommons.org/ns#" xmlns:dc="http://purl.org/dc/elements/1.1/" xmlns:osb="http://www.openswatchbook.org/uri/2009/osb" xmlns:rdf="http://www.w3.org/1999/02/22-rdf-syntax-ns#" xmlns:xlink="http://www.w3.org/1999/xlink">
 <defs>
  <linearGradient id="linearGradient6332-0" x1="69.359" x2="69.353" y1="51.9" y2="92.648" gradientTransform="translate(53.184 129.49)" gradientUnits="userSpaceOnUse">
   <stop stop-color="#00aad4" offset="0"/>
   <stop stop-color="#80ffe6" offset="1"/>
  </linearGradient>
 </defs>
 <metadata>
  <rdf:RDF>
   <cc:Work rdf:about="">
    <dc:format>image/svg+xml</dc:format>
    <dc:type rdf:resource="http://purl.org/dc/dcmitype/StillImage"/>
    <dc:title/>
   </cc:Work>
  </rdf:RDF>
 </metadata>
 <g transform="translate(-107.96 -172.24)">
  <path d="m122.54 181.39c-9.052-0.36349-16.473 9.488-13.427 18.065 1.0312 2.9671 2.9693 5.4787 4.5289 8.1806 2.964 4.8343 5.9281 9.6685 8.8921 14.503 4.1083-6.6864 8.1915-13.388 12.317-20.064 4.5143-7.4652-0.0793-18.185-8.5484-20.175-1.2238-0.33716-2.4935-0.5084-3.7626-0.50821z" fill="url(#linearGradient6332-0)" stroke="#2195b3" stroke-width=".911"/>
  <circle cx="122.54" cy="195.31" r="9.2839" fill="#fff" stroke="#2195b3" stroke-linecap="round" stroke-linejoin="round" stroke-width=".911" style="paint-order:normal"/>
  <g transform="matrix(.82593 0 0 .81626 66.314 162.81)" fill="none" stroke="#245a71" stroke-linecap="round" stroke-linejoin="round" stroke-width="1.4615">
   <path d="m71.851 35.704-6.2296 0.02376c-0.7017 0.0027-0.80275 0.66548-1.219 1.4407l-0.53072 0.98754-1.5394 0.21756c-0.69797 0.09851-1.2666 0.59002-1.2666 1.3229v1.3229c0 1.1817 0.56488 1.3258 1.2666 1.3229l1.2811-0.0052a1.6036 1.6036 0 0 0 1.6004 1.525 1.6036 1.6036 0 0 0 1.6004-1.5384l3.0773-0.01291a1.6036 1.6036 0 0 0-5.29e-4 0.01447 1.6036 1.6036 0 0 0 1.6035 1.6035 1.6036 1.6036 0 0 0 1.604-1.6035 1.6036 1.6036 0 0 0-0.0011-0.02739l0.72916-0.0031c0.7017-0.0029 1.2814-0.09375 1.2666-1.3229l-0.02379-1.9606c-0.0088-0.73284-0.84406-0.59066-1.604-0.85524l-0.51315-1.0816c-0.35446-0.74735-0.39952-1.3731-1.1012-1.3705z" style="paint-order:normal"/>
   <circle cx="65.198" cy="42.286" r="1.6036" style="paint-order:normal"/>
   <circle cx="71.502" cy="42.329" r="1.6036" style="paint-order:normal"/>
  </g>
 </g>
</svg>
