<?xml version="1.0" encoding="UTF-8"?>
<!-- Created with Inkscape (http://www.inkscape.org/) -->
<svg width="29.123mm" height="50.762mm" version="1.1" viewBox="0 0 29.123 50.762" xmlns="http://www.w3.org/2000/svg" xmlns:cc="http://creativecommons.org/ns#" xmlns:dc="http://purl.org/dc/elements/1.1/" xmlns:osb="http://www.openswatchbook.org/uri/2009/osb" xmlns:rdf="http://www.w3.org/1999/02/22-rdf-syntax-ns#" xmlns:xlink="http://www.w3.org/1999/xlink">
 <defs>
  <linearGradient id="linearGradient6436-3" x1="404.05" x2="405.63" y1="207.8" y2="361.85" gradientTransform="matrix(.26458 0 0 .26458 15.214 126.81)" gradientUnits="userSpaceOnUse">
   <stop stop-color="#ff4200" offset="0"/>
   <stop stop-color="#fd5" offset="1"/>
  </linearGradient>
 </defs>
 <metadata>
  <rdf:RDF>
   <cc:Work rdf:about="">
    <dc:format>image/svg+xml</dc:format>
    <dc:type rdf:resource="http://purl.org/dc/dcmitype/StillImage"/>
    <dc:title/>
   </cc:Work>
  </rdf:RDF>
 </metadata>
 <g transform="translate(-107.96 -172.24)" stroke-linejoin="round">
  <path d="m122.54 172.7c-0.33817 0-0.67675 0.12949-0.93586 0.38861l-7.7789 7.7794c-0.22805 0.22805-0.34937 0.5178-0.37672 0.81442a16.736 16.736 0 0 1 9.0914-2.6882 16.736 16.736 0 0 1 9.093 2.7042c-0.0241-0.30222-0.14662-0.59828-0.37879-0.83044l-7.7788-7.7794c-0.25912-0.25912-0.59718-0.38861-0.93534-0.38861zm-0.42323 9.0935c-8.8582-0.0463-16.002 9.6316-13.003 18.074 1.0312 2.9671 2.9694 5.479 4.5289 8.1809 2.964 4.8343 5.9279 9.6682 8.892 14.502 4.1083-6.6864 8.1915-13.388 12.317-20.064 4.5143-7.4652-0.0792-18.185-8.5483-20.176-1.2238-0.33716-2.4935-0.50817-3.7626-0.50798-0.14144-6e-3 -0.28263-9e-3 -0.42323-0.01z" fill="url(#linearGradient6436-3)" stroke="#b33921" stroke-width=".911" style="paint-order:normal"/>
  <circle cx="122.54" cy="195.73" r="10.82" fill="#fff" stroke="#b33921" stroke-linecap="round" stroke-width=".911" style="paint-order:normal"/>
  <g transform="translate(54.463 155.91)" fill="none" stroke="#731e0d" stroke-linecap="round" stroke-width="1.2">
   <path d="m71.851 35.704-6.2296 0.02376c-0.7017 0.0027-0.80275 0.66548-1.219 1.4407l-0.53072 0.98754-1.5394 0.21756c-0.69797 0.09851-1.2666 0.59002-1.2666 1.3229v1.3229c0 1.1817 0.56488 1.3258 1.2666 1.3229l1.2811-0.0052a1.6036 1.6036 0 0 0 1.6004 1.525 1.6036 1.6036 0 0 0 1.6004-1.5384l3.0773-0.01291a1.6036 1.6036 0 0 0-5.29e-4 0.01447 1.6036 1.6036 0 0 0 1.6035 1.6035 1.6036 1.6036 0 0 0 1.604-1.6035 1.6036 1.6036 0 0 0-0.0011-0.02739l0.72916-0.0031c0.7017-0.0029 1.2814-0.09375 1.2666-1.3229l-0.02379-1.9606c-0.0088-0.73284-0.84406-0.59066-1.604-0.85524l-0.51315-1.0816c-0.35446-0.74735-0.39952-1.3731-1.1012-1.3705z" style="paint-order:normal"/>
   <circle cx="65.198" cy="42.286" r="1.6036" style="paint-order:normal"/>
   <circle cx="71.502" cy="42.329" r="1.6036" style="paint-order:normal"/>
  </g>
 </g>
</svg>
